# xmcd CD database file
#
# Track frame offsets:
#	150
#	18443
#	31607
#	43658
#	57774
#	71315
#	82110
#	97039
#	112015
#	120384
#	131490
#	148484
#	162051
#	173299
#	186204
#	202492
#	216566
#	225887
#	242779
#	258245
#	289298
#
# Disc length: 4469 seconds
#
# Revision: 0
# Processed by: cddbd v1.4PL0 Copyright (c) Steve Scherf et al.
# Submitted via: CDex 1.40Release
#
DISCID=2f117315
DTITLE=Nezmari - Rozinky
DYEAR=1999
DGENRE=Country
TTITLE0=Rano bylo stejny
TTITLE1=Bodlaky ve vlasech
TTITLE2=Jedu sam/By The Time I Get To Phoenix
TTITLE3=Pramen lasky/Come Tu Dis
TTITLE4=Neuhadnes
TTITLE5=Barevnej svet/Puff, The Magic Dragon
TTITLE6=Hvezdy nad tebou/Dream A Little Dream
TTITLE7=Mamuti krik
TTITLE8=Kladivo/I Had A Hammer
TTITLE9=Musis jit dal
TTITLE10=Hej clovece bozi
TTITLE11=Pisek
TTITLE12=Zari
TTITLE13=Mary Lou
TTITLE14=Svetlo v tmach/The Light
TTITLE15=Reka/The river
TTITLE16=Davno se zname/Quetate
TTITLE17=Boure/Ready For Storm
TTITLE18=Kdosi pro me rikal
TTITLE19=Ruze/The Rose
TTITLE20=Data
EXTD=YEAR: 1999 ID3G: 2
EXTT0=
EXTT1=
EXTT2=
EXTT3=
EXTT4=
EXTT5=
EXTT6=
EXTT7=
EXTT8=
EXTT9=
EXTT10=
EXTT11=
EXTT12=
EXTT13=
EXTT14=
EXTT15=
EXTT16=
EXTT17=
EXTT18=
EXTT19=
EXTT20=
PLAYORDER=
